<svg id="Layer_1" data-name="Layer 1" xmlns="http://www.w3.org/2000/svg" viewBox="0 0 512 512"><title>arrow-up</title><path d="M0,256C0,114.62,114.62,0,256,0S512,114.63,512,256,397.37,512,256,512,0,397.38,0,256Z" fill="#ffc100"/><polygon points="234.63 251.49 234.63 321.23 277.37 321.23 277.37 251.49 298.94 251.49 277.46 221.13 256.01 190.78 234.54 221.13 213.06 251.49 234.63 251.49" fill="#fff"/><path d="M256,162.08A93.92,93.92,0,1,1,162.08,256,94,94,0,0,1,256,162.08m0-31.31A125.23,125.23,0,1,0,381.23,256,125.22,125.22,0,0,0,256,130.77Z" fill="#fff"/></svg>